/* XPM */
static char *_62847280b624b62ac5367960dfff734I5VVtf8SeDqlgOrl[] = {
/* columns rows colors chars-per-pixel */
"100 100 11 1 ",
"  c None",
". c black",
"X c #090909",
"o c #131313",
"O c gray11",
"+ c gray16",
"@ c #3C3C3C",
"# c gray26",
"$ c #565656",
"% c #7C7C7C",
"& c #B2B2B2",
/* pixels */
"                                                                                                    ",
"                                                                                                    ",
"                                                                                                    ",
"                                                                                                    ",
"                                                                                                    ",
"                                                                                                    ",
"                                                                                                    ",
"                                                                                                    ",
"                                                                                                    ",
"                                                                                                    ",
"                                                                                                    ",
"                                                                                                    ",
"                                                                                                    ",
"                                                                                                    ",
"                                                                                                    ",
"                                                                                                    ",
"                                                                                                    ",
"                                                                                                    ",
"                                                                                                    ",
"                                                                                                    ",
"                                                                                                    ",
"                                                                                                    ",
"                                                                                                    ",
"                                                                                                    ",
"                                                                                                    ",
"                                                                                                    ",
"                                                                                                    ",
"                                                                                                    ",
"                                                                                                    ",
"                                                                                                    ",
"                                                                                                    ",
"                                                                                                    ",
"                                                                                                    ",
"                                                                                                    ",
"                                                                                                    ",
"                                                                                                    ",
"                                              #########                                             ",
"                                          #####.....#######                                         ",
"                                        ######.......########                                       ",
"                                      #######.........#########                                     ",
"                                     ########.........##########                                    ",
"                                   #########...........###########                                  ",
"                                  ##########...........############                                 ",
"                                 ###########...........#############                                ",
"                                ###########.......&.....#############                               ",
"                               ############.............##############                              ",
"                               ############.....&...&....#############                              ",
"                              ############......&...&...&..############                             ",
"                              ###########.&.....&...&...&&&.###########                             ",
"                             ##########..&......&...&....%%&..##########                            ",
"                             #########.&&&......&...&....%%&&&.#########                            ",
"                            ##########.&%&.....&.....&...%@$$&.##########                           ",
"                            #########.%%$&.....&.....&...%$o+&&.#########                           ",
"                            ########.&%@O&.....&.....&.....@@&&&.########                           ",
"                           #########...........&.....&...........#########                          ",
"                           #######.............&.....&.............#######                          ",
"                           ####................&.....&................####                          ",
"                           ###.................&.....&.................###                          ",
"                           ##.............%%%%%+%%$+@@$%%%%.............##                          ",
"                           #.........&&&&$.....@@%&&+%.....%%%%%.........#                          ",
"                           #........&..........$@$%&&%..........%........#                          ",
"                           #......&............$$%%%&%............&......#                          ",
"                           ##.......&..........$O@%%&&..........%.......##                          ",
"                            ##.......&&&&&.....$$@@@%%.....%%%%%.......##                           ",
"                            ###...........&&&&&@%$O@+$$$$$$...........###                           ",
"                            ######.............%.....@.............######                           ",
"                             ########...........&...%...........########                            ",
"                             #########.&&&......&...%......&&&.#########                            ",
"                              ########.&%%%.....&...%...&&&@&&.########                             ",
"                              #########..O$&....&...%..&%$$$..#########                             ",
"                               ##########.%&....&...%..&$%%.##########                              ",
"                               ###########.......%.%...&&..###########                              ",
"                                ############......%......############                               ",
"                                 ############.........##############                                ",
"                                  ############.......##############                                 ",
"                                   ############.....##############                                  ",
"                                     ##########$...@############                                    ",
"                                      ##########X.X%###########                                     ",
"                                        #########@$##########                                       ",
"                                          #################                                         ",
"                                              #########                                             ",
"                                                                                                    ",
"                                                                                                    ",
"                                                                                                    ",
"                                                                                                    ",
"                                                                                                    ",
"                                                                                                    ",
"                                                                                                    ",
"                                                                                                    ",
"                                                                                                    ",
"                                                                                                    ",
"                                                                                                    ",
"                                                                                                    ",
"                                                                                                    ",
"                                                                                                    ",
"                                                                                                    ",
"                                                                                                    ",
"                                                                                                    ",
"                                                                                                    ",
"                                                                                                    "
};
