/* XPM */
static char *fb23ecc1da304fdecc3a2a81bc90d987kEMuSOKTktdCN30U[] = {
/* columns rows colors chars-per-pixel */
"100 100 4 1 ",
"  c None",
". c black",
"X c gray16",
"o c #3C3C3C",
/* pixels */
"                                                                                                    ",
"                                                                                                    ",
"                                                                                                    ",
"                                                                                                    ",
"                                                                                                    ",
"                                                                                                    ",
"                                                                                                    ",
"                                                                                                    ",
"                                                                                                    ",
"                                                                                                    ",
"                                                                                                    ",
"                                                                                                    ",
"                                                                                                    ",
"                                                                                                    ",
"                                                                                                    ",
"                                                                                                    ",
"                                                                                                    ",
"                                                                                                    ",
"                                                                                                    ",
"                                                                                                    ",
"                                                                                                    ",
"                                                                                                    ",
"                                                                                                    ",
"                                                                                                    ",
"                                                                                                    ",
"                                                                                                    ",
"                                                                                                    ",
"                                                                                                    ",
"                                                                                                    ",
"                                                                                                    ",
"                                                                                                    ",
"                                                                                                    ",
"                                                                                                    ",
"                                                                                                    ",
"                                                                                                    ",
"                                                                                                    ",
"                                                                                                    ",
"                                                                                                    ",
"                                                                                                    ",
"                              ................................................                      ",
"                              ................................................                      ",
"                              ...X............................................                      ",
"                              ..o.X...........................................                      ",
"                              ...o...........................ooooo............                      ",
"                              ..............................o.....o...........                      ",
"                              ...............................ooooo............                      ",
"                              ...............o................................                      ",
"                              ..............o.X...............................                      ",
"                              ...............o................................                      ",
"                              ................................................                      ",
"                              ................................................                      ",
"                              ................................................                      ",
"                              ................................................                      ",
"                              ................................................                      ",
"                              ........................o.........ooooo.........                      ",
"                              .......................o.o.......o.....o........                      ",
"                              .......................X.o........oXooo.........                      ",
"                              .......................o.o......................                      ",
"                              .......................o.o......................                      ",
"                              .......................o.X......................                      ",
"                              ........o...............o.......................                      ",
"                              .......o.o......................................                      ",
"                              .......o.o......................................                      ",
"                              .......o.o......................................                      ",
"                              .......o.o......................................                      ",
"                              .......o.o......................XXX.............                      ",
"                              ........o......................X...X............                      ",
"                              ...............................X...X............                      ",
"                              ...............................X...X............                      ",
"                              ................................XXX.............                      ",
"                              ................................................                      ",
"                              ................................................                      ",
"                              ................................................                      ",
"                                                                                                    ",
"                                                                                                    ",
"                                                                                                    ",
"                                                                                                    ",
"                                                                                                    ",
"                                                                                                    ",
"                                                                                                    ",
"                                                                                                    ",
"                                                                                                    ",
"                                                                                                    ",
"                                                                                                    ",
"                                                                                                    ",
"                                                                                                    ",
"                                                                                                    ",
"                                                                                                    ",
"                                                                                                    ",
"                                                                                                    ",
"                                                                                                    ",
"                                                                                                    ",
"                                                                                                    ",
"                                                                                                    ",
"                                                                                                    ",
"                                                                                                    ",
"                                                                                                    ",
"                                                                                                    ",
"                                                                                                    ",
"                                                                                                    "
};
