/* XPM */
static char *_1af87e2dc184e458c0f1e948f2699edWlPAAPnKQRURDvqg[] = {
/* columns rows colors chars-per-pixel */
"100 100 11 1 ",
"  c None",
". c black",
"X c #ED1C24",
"o c #720899",
"O c #673AB7",
"+ c #9C27B0",
"@ c #A349A4",
"# c #CD55CF",
"$ c #5487FF",
"% c #7F86E3",
"& c #99D9EA",
/* pixels */
"                                                                                                    ",
"                                                                                                    ",
"                                                                                                    ",
"                                                                                                    ",
"                                                                                                    ",
"                                                                                                    ",
"                                                                                                    ",
"                                                                                                    ",
"                                                                                                    ",
"                                                                                                    ",
"                                                                                                    ",
"                                                                                                    ",
"                                                                                                    ",
"                                                                                                    ",
"                                                                                                    ",
"                                                                                                    ",
"                                                                                                    ",
"                                                                                                    ",
"                                                                                                    ",
"                                                                                                    ",
"                                                                                                    ",
"                                                                                                    ",
"                                                                                                    ",
"                                                                                                    ",
"                                                                                                    ",
"                                                                                                    ",
"                                                                                                    ",
"                                                                                                    ",
"                                                                                                    ",
"                                                                                                    ",
"                                                                                                    ",
"                                                                                                    ",
"                                                                                                    ",
"                           OOOO+++++++                                                              ",
"                           OOO%%%%%$$+.                                                             ",
"                             OO++$%%%$.                                                             ",
"                                ++$$%$..                                                            ",
"                              .+++$%%$$.                                                            ",
"                             ..+$$$%$$$.                                                            ",
"                             .$$$%%%$$$.                                                            ",
"                             .$$%%%XX...                                                            ",
"                    OOOOOO   .XXXX%X..   @@@@                                                       ",
"                  +++%%OOO   ....X%X.    ###@                                                       ",
"                  +$%%OO        .X%X.      ##@                                                      ",
"                  +%%++         .X%X.      o#@                                                      ",
"                 ++%$+          .X%..  #oooo#@@                                                     ",
"                 ++%$+    ..... .X%.   #oooo##@@@                                                   ",
"                 +$%$+   ..XX.....%.   #oooooooo@@@                                                 ",
"                 +$%$+   ..XXXX....#####.%$%$&oooo@@                                                ",
"                 .$%$.....X%%%%.........$$$$$&&....@                                                ",
"                 .$%$$$XX%%%X......%$%$%$&&&$$$$$$$@                                                ",
"                 .$%%$$X%%X....X........$&&&$$$$$$$@                                                ",
"                 .$$%$$X%XX....X%..#####$$$$$&&....@                                                ",
"                 ..$%$%%%X....XX%..    #.%$%$&oooo@@                                                ",
"                 ..$%%%$XX.. .XX%X.    #oooooooo@@                                                  ",
"                  .$$$$$.... .X%%X.    #oooo##@@@                                                   ",
"                  ..$$$$... .XX%XX.        o#@@                                                     ",
"                  .......   .XX%XX.        ##@                                                      ",
"                            .XX%%X...    ###@                                                       ",
"                            ....%%%$.    @@@@                                                       ",
"                              ++$$%$.                                                               ",
"                        OOOO+++$%%%$.                                                               ",
"                        OOO%%%%%%$$..                                                               ",
"                          OO++$$++...                                                               ",
"                             +++++                                                                  ",
"                                                                                                    ",
"                                                                                                    ",
"                                                                                                    ",
"                                                                                                    ",
"                                                                                                    ",
"                                                                                                    ",
"                                                                                                    ",
"                                                                                                    ",
"                                                                                                    ",
"                                                                                                    ",
"                                                                                                    ",
"                                                                                                    ",
"                                                                                                    ",
"                                                                                                    ",
"                                                                                                    ",
"                                                                                                    ",
"                                                                                                    ",
"                                                                                                    ",
"                                                                                                    ",
"                                                                                                    ",
"                                                                                                    ",
"                                                                                                    ",
"                                                                                                    ",
"                                                                                                    ",
"                                                                                                    ",
"                                                                                                    ",
"                                                                                                    ",
"                                                                                                    ",
"                                                                                                    ",
"                                                                                                    ",
"                                                                                                    ",
"                                                                                                    ",
"                                                                                                    ",
"                                                                                                    ",
"                                                                                                    "
};
