/* XPM */
static char *bddee670a02244419b55390cee83ef8fMDqz8IrHjKcfJLiK[] = {
/* columns rows colors chars-per-pixel */
"100 100 9 1 ",
"  c None",
". c black",
"X c #ED1C24",
"o c #720899",
"O c #A349A4",
"+ c #CD55CF",
"@ c #5487FF",
"# c #7F86E3",
"$ c #99D9EA",
/* pixels */
"                                                                                                    ",
"                                                                                                    ",
"                                                                                                    ",
"                                                                                                    ",
"                                                                                                    ",
"                                                                                                    ",
"                                                                                                    ",
"                                                                                                    ",
"                                                                                                    ",
"                                                                                                    ",
"                                                                                                    ",
"                                                                                                    ",
"                                                                                                    ",
"                                                                                                    ",
"                                                                                                    ",
"                                                                                                    ",
"                                                                                                    ",
"                                                                                                    ",
"                                                                                                    ",
"                                                                                                    ",
"                                                                                                    ",
"                                                                                                    ",
"                                                                                                    ",
"                                                                                                    ",
"                                                                                                    ",
"                                                                                                    ",
"                                                                                                    ",
"                                                                                                    ",
"                                                                                                    ",
"                                                                                                    ",
"                                                                                                    ",
"                                                                                                    ",
"                                                                                                    ",
"                                                                                                    ",
"                                                                                                    ",
"                                +++++oooo                                                           ",
"                               .+######oo                                                           ",
"                               .@#@@++oo                                                            ",
"                               .@#++++o                                                             ",
"                               .@#..                                                                ",
"                   ......      .@##.....                                                            ",
"                ....@@@@.....  ..@####@. OOOO                                                       ",
"               ..@@@@###@@@@..  .XXX#@@. +++O                                                       ",
"              ...##########@@.  .X##XX..   ++O                                                      ",
"              .@@##@@@@@@###@.  .X#X...    o+O                                                      ",
"              .@###@....@@##X.. .X#..  +oooo+OO                                                     ",
"              .@#@@......XX##X. .X#.   +oooo++OOO                                                   ",
"              .@##@.    ..XX#X....#.   +ooooooooOOO                                                 ",
"              .@@#@.     ..X#XX....+++++.#@#@$ooooOO                                                ",
"              ..@##.     ...X##.........@@@@@$$....O                                                ",
"              ....#.      .........#@#@#@$$$@@@@@@@O                                                ",
"                 .#++++    ....X........@$$$@@@@@@@O                                                ",
"                 .####+o     ..X#..+++++@@@@@$$....O                                                ",
"                 .+@@##oo   ..XX#..    +.#@#@$ooooOO                                                ",
"                  +++oooo   .X###X.    +ooooooooOO                                                  ",
"                            .X#XXX.... +oooo++OOO                                                   ",
"                            .X#XX@@@@..    o+OO                                                     ",
"                            .X#######@.    ++O                                                      ",
"                            ..@..++@#@+  +++O                                                       ",
"                             ...  o#oo+  OOOO                                                       ",
"                                  o#o                                                               ",
"                                  o#o                                                               ",
"                                  ooooo                                                             ",
"                                   oooo                                                             ",
"                                                                                                    ",
"                                                                                                    ",
"                                                                                                    ",
"                                                                                                    ",
"                                                                                                    ",
"                                                                                                    ",
"                                                                                                    ",
"                                                                                                    ",
"                                                                                                    ",
"                                                                                                    ",
"                                                                                                    ",
"                                                                                                    ",
"                                                                                                    ",
"                                                                                                    ",
"                                                                                                    ",
"                                                                                                    ",
"                                                                                                    ",
"                                                                                                    ",
"                                                                                                    ",
"                                                                                                    ",
"                                                                                                    ",
"                                                                                                    ",
"                                                                                                    ",
"                                                                                                    ",
"                                                                                                    ",
"                                                                                                    ",
"                                                                                                    ",
"                                                                                                    ",
"                                                                                                    ",
"                                                                                                    ",
"                                                                                                    ",
"                                                                                                    ",
"                                                                                                    ",
"                                                                                                    ",
"                                                                                                    ",
"                                                                                                    "
};
