/* XPM */
static char *_ffb4d017ab24584fa3e468188a97ddb7fr6K2JfOp3KOuhH[] = {
/* columns rows colors chars-per-pixel */
"100 100 6 1 ",
"  c None",
". c gray26",
"X c #00E676",
"o c gray62",
"O c gray74",
"+ c #C8E6C9",
/* pixels */
"                                                                                                    ",
"                                                                                                    ",
"                                                                                                    ",
"                                                                                                    ",
"                                                                                                    ",
"                                                                                                    ",
"                                           ..OOOOOOO++++                                            ",
"                                       +++++..OOOO.+++++++++                                        ",
"                                   +++++++++o.OOOOo+++++.+++++oo                                    ",
"                                 +++++++++++o.OOO..+++..o++++ooooo                                  ",
"                               o+++oo++++++++.OO..o++.oooo++oooooo++                                ",
"                             ooo++oooo+++++++..O.++++++.o+++ooooo+++++                              ",
"                           oooooo+ooooo+++++++o.++++++++++++oooo++++oooo                            ",
"                          ooooooooooooo+++++++o.++++++++++++oooo++++ooooo                           ",
"                        ooooooooooooooooo+++++++++++++++++++++oo+oooooooooo                         ",
"                       oooooooooooooooooo+++++++++++++++++++++++++oooooooooo                        ",
"                      ooooooooooooooooooo+++++++++++++++++++++++++ooooooooooo                       ",
"                     oooooooooooooooooooo++++++++++++++++++++++++ooooooooooooo                      ",
"                    oooooooooooooooooooooooo+++++++++++++++++++oooooooooooooooo                     ",
"                   oooooooooooooooooooo+ooo+++++++++++++++++++oooooooooooo+++ooo                    ",
"                  oooooooooooooooooo++++ooo+++++++++++++++++++ooooooo++ooo++++ooo                   ",
"                 oooooooooooooooooo++++++o++++++++++++++++++++ooooo++++oooo+++oooo                  ",
"                oooooooooooooooooo+++++++++++++++++++++++++++++ooo++++ooo++++++++++                 ",
"                oooooooooooooooooo++++++++++++++++++++++++++++++++++++oo+++++++++++                 ",
"               ooooooooooooooooooo+++++++++++++++++++++++++++++++o++++++++++++++++++                ",
"              ooooooooooooooooooo+++++++++++++++++++++++++++++++oo+++++++++++++++++++               ",
"              oooooooooooooooooo+++++++++++++++++++++++++++++++oooo+ooooo++++++++++++               ",
"             oooooooooooooooooo++++++++++++++++++++++++++++++ooooooooooooo++++++++++++              ",
"            oooooooooooooooooo+++++++++++++++++++++++++++++oooooooooooooooo++++++++++++             ",
"            oooooo++ooooooo++++++++++++++++++++++++++++++++ooooooooooooooooo++++++++oooo            ",
"           oooooo+++++oooo++++++++++++++++++++++++++++++++oooooooooooooooooo++++oooooooo            ",
"           ooooo++++++ooo++++++++++++++++++++++++++++++++ooooooooooooooooooooooooooooooo            ",
"          ooooo+++++++ooo+++++++++++++++++++++++++++++++ooooooooooooooooooooooooooooooooo           ",
"          ooooo++++++++oo++++++++++++++++++++++++++++++oooooooooooooooooooooooooooooooooo           ",
"          oooo+++++++++oo++++++++++++++++++++++++++++++oooooooooooooooooooooooooooooooooo           ",
"         oooooo++oo++++++++++++++++++++++++++++++++++++ooooooooooooooooooooooooooooooooooo          ",
"         oooooooooo++++++++++++++++++++++++++++++++++++ooooooooooooooooooooooooooooooooooo          ",
"         oooooooooo++++++++++++++++++++++++++++++++++++ooooooooooooooooooooooooooooooooooo          ",
"        +ooooooooo++++++++++++++++++++++++++++++++++++++ooooooooooooooooooooooooooooooooooo         ",
"        +oooooooo+++++++++++++++++++++++++++++++++++++++ooooooooooooooooooooooooooooooooooo         ",
"        ++oooooo++++++++++++++++++++++++++++++++++++++++ooooooooooooooooooooooooooooooooooo         ",
"        ++oooooo+++++++++++++++++++++++++++++++++++++++oooooooooooooooooooooooooooooooooooo         ",
"        +++ooooo+++++++++++++++++++++++++++++++++++++++oooooooooooooooooooooooooooooooooooo         ",
"       +++++oooo+++++++++++++o+++++++++++++++++++++++++ooooooooooooooooooooooooooooooooooooo        ",
"       +++++ooooo++++++++++oooo+++++++++++++++++++++++++oooooooooooooooooooooooooooooooooooo        ",
"       +++++++ooooo++++++oooooooooooo+++++++++++++++++++oooooooooooooooooooooooooooooooooooo        ",
"       ++++++++oo+oo+oooooooooooooooooo++++++++++++++++++ooooooooooooooooooooooooooooooooooo        ",
"       +++++++++oo+o+ooooooooooooooooooo+o+++++++++++++++ooooooooooooooooooooooooooooooooooo        ",
"       ++++++++++oooooooooooooooooooooo++oo++++++++++++++++o+ooooooooooooooooooooooooooooooo        ",
"       +++++++++++ooooooooooooooooooooo+ooo++++++++++++++++++++ooo+ooooooooooooooooooooooooo        ",
"       +++++++++ooooooooooooooooooooooo++o++o++++++++++++++++++++++++ooooooooooooooooooooooo        ",
"       +++++++++oooooooooooooooooooooooooo+ooo+o++++++++++++++++++++++oooooooooooooooooooooo        ",
"       +++++++++oooooooooooooooooooooooooooooo+ooo+++++++++++++++++++++ooooooooooooooooooooo        ",
"       +++++++++oooooooooooooooooooooooooooooo+oooo++++++++++++++++++++ooooooooooooooooooooo        ",
"       +++++++++ooooooooooooooooooooooooooooooooooo++++++++++++++++++++ooooooooooooooooooooo        ",
"       ++++++++oooooooooooooooooooooooooooooooooooo++++++++++++++++++++ooooooooooooooooooooo        ",
"        +++++++ooooooooooooooooooooooooooooooooooooo+++++++++++++++++++oooooooooooooooooooo         ",
"        +++++++ooooooooooooooooooooooooooooooooooooo++++++++++++++++++++oooooooooooooo++ooo         ",
"        +++++++ooooooooooooooooooooooooooooooooooooo+++++++++++++++++++++oooooooooooo+++++o         ",
"        ++++++++oooooooooooooooooooooooooooooooooooo++++++++++++++++++++ooooooooooooo+++++o         ",
"        ++++++++oooooooooooooooooooooooooooooooooooo++++++++++++++++++++oooooooooooooo+++oo         ",
"         ++++++++ooooooooooooooooooooooooooooooooooo++++++++++++++++++++ooooooooooooooo++o          ",
"         ++++++++oooooooooooooooooooooooooooooooooo++++++++++++++++++++++ooooooooooooooooo          ",
"         ++++++++ooooooooooooooooooooooooooooooooo+++++++++++++++++++++++ooooooooooooooooo          ",
"          +++++++ooooooooooooooooooooooooooooooooo++++++++++++++++++++++++ooooooooooooooo           ",
"          +++++++ooooooooooooooooooooooooooooooo++++++++++++++++++++++++++ooooooooooooooo           ",
"          +++++++ooooooooooooooooooooooooooooooo+++++++++++++++++++++++++oooooooooooooooo           ",
"           +++++++ooooooooooooooooooooooooooooo++++++++++++++++++++++++++ooooooooooooooo            ",
"           +++++++++ooooooooooooooooooooooooo+++++++++++++++++++++++++++oooooooooooooooo            ",
"            +++++++++oooooooooooooooooooooo+++++++++++++++++++++++++++++ooooooooooooooo             ",
"            ++++++++++ooooooooooooooooooooo+++++++++++++++++++++++++++++ooooooooooooooo             ",
"             +++++++++++ooooooooooooooooooo+++++++++++++++++++++++++++++oooooooooooooo              ",
"              +++++++++++.ooooooooooooooooo+++++++++++++++++++++++++++++ooooooooooooo               ",
"              ++++++++++++.oooooooooooooooo++++++++++++++++++++++++++++++oooooooooooo               ",
"               ++++++++++++.ooooooooooooooo+++++++++++++++++++++++++++++++oooooooooo                ",
"                +++++++++++.ooooooooooooo+++++++++++++++++++++++++++++++++++ooooooo                 ",
"                ++++++++++++.ooooooooooo++++++++++++++++++++++++++++++++++++ooooooo                 ",
"                 +++++++++++..oooooooooo+++++++++++++++++++++++++++++++++++++ooooX                  ",
"                  ++++++++++..ooooooooooo++++++++++++++++++++++++++++++++++++oooo                   ",
"                   ++++++++++.ooooooooooo+++++++++++++++++++++++++++++++++++++++                    ",
"                    +++++++++..oooooooooo++++++++++++++++++++++++++++++++++++++                     ",
"                     +++++++++.ooooooooo++++++++++++++++++++++++++++++++++++++                      ",
"                      ++++++++..ooooooo++++++++++++++++++++++++++++++++++++++                       ",
"                       ++++++++.oooooo++++++++++++++++++++++++++++++++++++++                        ",
"                        +++++++..ooooo+++++++++++++++++++++++++++++++++++++                         ",
"                          ++++++..ooooo++++++++++++++++++++++++++++++++++                           ",
"                           +++++++ooooo+++++++++++++++++++++++++++++++++                            ",
"                             +++++ooooo+++++++++++++++++++++++++++++++                              ",
"                               ++++oooo+++++++++++++++++++++++++++++                                ",
"                                 ++oooo+++++++++++++++++++++++++++                                  ",
"                                   ooo++++++++++++++++++++++++++                                    ",
"                                       +++++++++++++++++++++                                        ",
"                                           +++++++++++++                                            ",
"                                                                                                    ",
"                                                                                                    ",
"                                                                                                    ",
"                                                                                                    ",
"                                                                                                    ",
"                                                                                                    ",
"                                                                                                    "
};
