/* XPM */
static char *fd858a06049347ced17defd921b9f6c6tTay3gIb2VuZl0M8[] = {
/* columns rows colors chars-per-pixel */
"100 100 10 1 ",
"  c None",
". c gray26",
"X c #00C853",
"o c #00E676",
"O c #FFD54F",
"+ c #2979FF",
"@ c #448AFF",
"# c gray74",
"$ c #FFE082",
"% c gray96",
/* pixels */
"                                                                                                    ",
"                                                                                                    ",
"                                                                                                    ",
"                                                                                                    ",
"                                                                                                    ",
"                                                                                                    ",
"                                           ..#######++++                                            ",
"                                       +++++..####.+++++++++                                        ",
"                                   +++++++++%.####%++%+%.+++++XX                                    ",
"                                 +++++++++++%.###..+++..o%+++XXXXX                                  ",
"                               X+++XX++++++++.##..%++.oo%o++XXXXXX++                                ",
"                             XXX++XXXX+++++++..#.++++%%.o+++XXXXX+++++                              ",
"                           XXXXXX+XXXXX+++++++%.++++++++++++XXXX++++XXXX                            ",
"                          XXXXXXXXXXXXX+++++++%.++++++++++++XXXX++++XXXXX                           ",
"                        XXXXXXXXXXXXXXXXX+++++++++++++++++++++XX+XXXXXXXXXX                         ",
"                       XXXXXXXXXXXXXXXXXX+++++++++++++++++++++++++XXXXXXXXXX                        ",
"                      XXXXXXXXXXXXXXXXXXX+++++++++++++++++++++++++XXXXXXXXXXX                       ",
"                     XXXXXXXXXXXXXXXXXXXX++++++++++++++++++++++++XXXXXXXXXXXXX                      ",
"                    oooXXXXXXXXXXXXXXXXXXXXX+++++++++++++++++++XXXXXXXXXXXXXXXX                     ",
"                   ooooooXXXXXXXXXXXXXX+XXX+++++++++++++++++++XXXXXXXXXXXX+++XXX                    ",
"                  ooooooooooooooXXXX++++XXX+++++++++++++++++++XXXXXXX++XXX++++XXX                   ",
"                 ooooooooooooooooXX++++++X++++++++++++++++++++XXXXX++++XXXX+++XXXX                  ",
"                oooooooooooooooooo+++++++++++++++++++++++++++++XXX++++XXX++++++++++                 ",
"                oooooooooooooooooo++++++++++++++++++++++++++++++++++++XX+++++++++++                 ",
"               ooooooooooooooooooo+++++++++++++++++++++++++++++++O++++++++++++++++++                ",
"              ooooooooooooooooooo+++++++++++++++++++++++++++++++OO+++++++++++++++++++               ",
"              oooooooooooooooooo+++++++++++++++++++++++++++++++$OOO+OOO$$++++++++++++               ",
"             oooooooooooooooooo++++++++++++++++++++++++++++++$$$OOOOOO$$$$++++++++++++              ",
"            oooooooooooooooooo+++++++++++++++++++++++++++++$$$$OOOOOOO$$$$$++++++++++++             ",
"            oooooo++ooooooo++++++++++++++++++++++++++++++++$$$$OOOOOO$$$$$$$++++++++$$O$            ",
"           oooooo+++++oooo++++++++++++++++++++++++++++++++$$$$OOOOOO$$$$$$$$++++$$$$$$O$            ",
"           ooooo++++++ooo++++++++++++++++++++++++++++++++$$$$$OOOOO$$$$$$OO$$$$$$$$$$$OO            ",
"          ooooo+++++++ooo+++++++++++++++++++++++++++++++$$$$$$OOOO$$$$$OO$$$$$$$$$$$$$$O$           ",
"          ooooo++++++++oo++++++++++++++++++++++++++++++$$$$$$$OO$$$$$$$O$$$$$$$$$$$$$$$O$           ",
"          oooo+++++++++oo++++++++++++++++++++++++++++++$$$$$$$$$$$$$$$O$$$$$$$$$$$$$$$$O$           ",
"         oooooo++oo++++++++++++++++++++++++++++++++++++$$$$$$$$$$$$$$OO$$$$$$$$$$$$$$$$$$$          ",
"         oooooooooo++++++++++++++++++++++++++++++++++++$$$$$$$$$$$$$$$$$$$$$$$$$OO$$$$$$$$          ",
"         oooooooooo++++++++++++++++++++++++++++++++++++$$$$$$$$$$$$$$$$$$$$$$$$$$OO$$$$$$$          ",
"        +ooooooooo++++++++++++++++++++++++++++++++++++++$$$O$$$$$$$$$$$$$$$$$$$$$$O$$$$$$$$         ",
"        +oooooooo+++++++++++++++++++++++++++++++++++++++$$$OO$$$$$$$$$$$$$$$$$$$$$$$$$$$$$$         ",
"        ++oooooo++++++++++++++++++++++++++++++++++++++++$$$$O$$$$$$$$$$$$$$$$$$$$$$$$$$$$$$         ",
"        ++oooooo+++++++++++++++++++++++++++++++++++++++$$$$$$$$$$$$$$$$$$$$$$$$$$$$$$$$$$$$         ",
"        +++ooooo+++++++++++++++++++++++++++++++++++++++$$$$$$$$$$$$$$$$$$$$$$$$$$$$$$$$$$$$         ",
"       +++++oooo+++++++++++++X+++++++++++++++++++++++++$$$$$$$$$$$$$$ooooo$$$$$$$$$$$$$$$$$$        ",
"       +++++ooooo++++++++++XXXX+++++++++++++++++++++++++oo$$$oo$$ooooooooooooooo$$$$$$$$$$$$        ",
"       +++++++ooooo++++++XXXXXXXXXXXX+++++++++++++++++++ooooooooooooooooooooooooooooooo$$ooo        ",
"       ++++++++oo+oo+XXXXXXXXXXXXXXXXXX++++++++++++++++++ooooooooooooooooooooooooooooooooooo        ",
"       +++++++++oo+o+XXXXXXXXXXXXXXXXXXX+X+++++++++++++++ooooooooooooooooooooooooooooooooooo        ",
"       ++++++++++oXXXXXXXXXXXXXXXXXXXXX++XX++++++++++++++++o+ooooooooooooooooooooooooooooooo        ",
"       +++++++++++XXXXXXXXXXXXXXXXXXXXX+XXX++++++++++++++++++++ooo+ooooooooooooooooooooooooo        ",
"       +++++++++XXXXXXXXXXXXXXXXXXXXXXX++X++X++++++++++++++++++++++++ooooooooooooooooooooooo        ",
"       +++++++++XXXXXXXXXXXXXXXXXXXXXXXXXX+XXX+X++++++++++++++++++++++oooooooooooooooooooooo        ",
"       +++++++++XXXXXXXXXXXXXXXXXXXXXXXXXXXXXX+XXX+++++++++++++++++++++XXooooooooooooooooooo        ",
"       +++++++++XXXXXXXXXXXXXXXXXXXXXXXXXXXXXX+XXXX++++++++++++++++++++XXXooooooooooooooooXX        ",
"       +++++++++XXXXXXXXXXXXXXXXXXXXXXXXXXXXXXXXXXX++++++++++++++++++++XXXXooooooooooooooXXX        ",
"       ++++++++XXXXXXXXXXXXXXXXXXXXXXXXXXXXXXXXXXXX++++++++++++++++++++XXXXXoooooooooooooXXX        ",
"        +++++++XXXXXXXXXXXXXXXXoooXXXXXXXXXXXXXXXXXX+++++++++++++++++++XXXXXooooooooooooXXX         ",
"        +++++++XXXXXXXXXXXXXXXoooooooXXXXXXXXXXXXXXX++++++++++++++++++++XXXXXooooooooo@@XXX         ",
"        +++++++XXXXXXXXXXoooooooooooooXXXXXXXXXXXXXX+++++++++++++++++++++XXXXXXXXXooo@@@@@X         ",
"        ++++++++XXXXXXXooooooooooooooooXXXXXXXXXXXXX++++++++++++++++++++XXXXXXXXXXXXo@@@@@X         ",
"        ++++++++XXXXXXooooooooooooooooooXXXXXXXXXXXX++++++++++++++++++++XXXXXXXXXXXXXX@@@XX         ",
"         ++++++++XooooooooooooooooooooooXXXXXXXXXXXX++++++++++++++++++++XXXXXXXXXXXXXXX@@X          ",
"         ++++++++ooooooooooooooooooooooooXXXXXXXXXX++++++++++++++++++++++XXXXXXXXXXXXXXXXX          ",
"         ++++++++oooooooooooooooooooooooooooXXXXXX+++++++++++++++++++++++XXXXXXXXXXXXXXXXX          ",
"          +++++++ooooooooooooooooooooooooooooooXXX++++++++++++++++++++++++XXXXXXXXXXXXXXX           ",
"          +++++++ooooooooooooooooooooooooooooooo++++++++++++++++++++++++++XXXXXXXXXXXXXXX           ",
"          +++++++ooooooooooooooooooooooooooooooo+++++++++++++++++++++++++XXXXXXXXXXXXXXXX           ",
"           +++++++ooooooooooooooooooooooooooooo++++++++++++++++++++++++++XXXXXXXXXXXXXXX            ",
"           +++++++++ooooooooooooooooooooooooo+++++++++++++++++++++++++++XXXXXXXXXXXXXXXX            ",
"            +++++++++oooooooooooooooooooooo+++++++++++++++++++++++++++++XXXXXXXXXXXXXXX             ",
"            ++++++++++ooooooooooooooooooooo+++++++++++++++++++++++++++++XXXXXXXXXXXXXXX             ",
"             +++++++++++$$$oooooooooooooooo+++++++++++++++++++++++++++++XXXXXXXXXXXXXX              ",
"              +++++++++++.$$ooooooooooooooo+++++++++++++++++++++++++++++XXXXXXXXXXXXX               ",
"              ++++++++++++.$$oooooooooooooo++++++++++++++++++++++++++++++XXXXXXXXXXXX               ",
"               ++++++++++++.$oooooooooooooo+++++++++++++++++++++++++++++++XXXXXXXXXX                ",
"                +++++++++++.$$ooooooooooo+++++++++++++++++++++++++++++++++++XXXXXXX                 ",
"                ++++++++++++.$$ooooooooo++++++++++++++++++++++++++++++++++++XXXXXXX                 ",
"                 +++++++++++..$ooooooooo+++++++++++++++++++++++++++++++++++++XXXXo                  ",
"                  ++++++++++..$$ooooooooo++++++++++++++++++++++++++++++++++++XXXX                   ",
"                   ++++++++++.$$$oooooooo+++++++++++++++++++++++++++++++++++++++                    ",
"                    +++++++++..$$$ooooooo++++++++++++++++++++++++++++++++++++++                     ",
"                     +++++++++.$$$oooooo++++++++++++++++++++++++++++++++++++++                      ",
"                      ++++++++..$$$oooo++++++++++++++++++++++++++++++++++++++                       ",
"                       ++++++++.$$$ooo++++++++++++++++++++++++++++++++++++++                        ",
"                        +++++++..$$ooo+++++++++++++++++++++++++++++++++++++                         ",
"                          ++++++..$$ooo++++++++++++++++++++++++++++++++++                           ",
"                           +++++++$$ooo+++++++++++++++++++++++++++++++++                            ",
"                             +++++$$ooo+++++++++++++++++++++++++++++++                              ",
"                               ++++$$oo+++++++++++++++++++++++++++++                                ",
"                                 ++$ooo+++++++++++++++++++++++++++                                  ",
"                                   $$o++++++++++++++++++++++++++                                    ",
"                                       +++++++++++++++++++++                                        ",
"                                           +++++++++++++                                            ",
"                                                                                                    ",
"                                                                                                    ",
"                                                                                                    ",
"                                                                                                    ",
"                                                                                                    ",
"                                                                                                    ",
"                                                                                                    "
};
