/* XPM */
static char *a86f088aff774ed9ea7bfd04e6c6986aAPhpZrXwtAntQUjH[] = {
/* columns rows colors chars-per-pixel */
"100 100 8 1 ",
"  c None",
". c black",
"X c gray11",
"o c gray16",
"O c #3C3C3C",
"+ c #FF7F27",
"@ c #FFC90E",
"# c #FFF200",
/* pixels */
"                                                                                                    ",
"                                                                                                    ",
"                                                                                                    ",
"                                                                                                    ",
"                                                                                                    ",
"                                                                                                    ",
"                                                                                                    ",
"                                                                                                    ",
"                                                                                                    ",
"                                                                                                    ",
"                                                                                                    ",
"                                                                                                    ",
"                                                                                                    ",
"                                                                                                    ",
"                                                                                                    ",
"                                                                                                    ",
"                                                                                                    ",
"                                                                                                    ",
"                                                                                                    ",
"                                                                                                    ",
"                                                                                                    ",
"                                                                                                    ",
"                                                                                                    ",
"                                                                                                    ",
"                                                                                                    ",
"                                                                                                    ",
"                                                                                                    ",
"                                                                                                    ",
"                                                                                                    ",
"                                                                                                    ",
"                                                                                                    ",
"                                                                                                    ",
"                                                                                                    ",
"                                                                                                    ",
"                                                                                                    ",
"                                                                                                    ",
"                                     .........................                                      ",
"                                     .........................                                      ",
"                                     ...o.................o...                                      ",
"                                     ..X.X...............O.o..                                      ",
"                                     ...o................o.o..                                      ",
"                                     ....................o.o..                                      ",
"                                     .....................o...                                      ",
"                                     .........................                                      ",
"                                     .........................                                      ",
"                                     ............+............                                      ",
"                                     .........+.@#@.+.........                                      ",
"                                     .........@##@##@.........                                      ",
"                                     ........@##@@@##@........                                      ",
"                                     ........###@+@###........                                      ",
"                                     .......+###+++###+.......                                      ",
"                                     ........###@+@###........                                      ",
"                                     ........@##@@@##@........                                      ",
"                                     .........@##@##@.........                                      ",
"                                     .........+.@#@.+.........                                      ",
"                                     ............+............                                      ",
"                                     .........................                                      ",
"                                     ....................o....                                      ",
"                                     .........................                                      ",
"                                     .........................                                      ",
"                                     ....ooooo................                                      ",
"                                     ...o.....o...............                                      ",
"                                     ....ooooo................                                      ",
"                                     .........................                                      ",
"                                     .........................                                      ",
"                                                                                                    ",
"                                                                                                    ",
"                                                                                                    ",
"                                                                                                    ",
"                                                                                                    ",
"                                                                                                    ",
"                                                                                                    ",
"                                                                                                    ",
"                                                                                                    ",
"                                                                                                    ",
"                                                                                                    ",
"                                                                                                    ",
"                                                                                                    ",
"                                                                                                    ",
"                                                                                                    ",
"                                                                                                    ",
"                                                                                                    ",
"                                                                                                    ",
"                                                                                                    ",
"                                                                                                    ",
"                                                                                                    ",
"                                                                                                    ",
"                                                                                                    ",
"                                                                                                    ",
"                                                                                                    ",
"                                                                                                    ",
"                                                                                                    ",
"                                                                                                    ",
"                                                                                                    ",
"                                                                                                    ",
"                                                                                                    ",
"                                                                                                    ",
"                                                                                                    ",
"                                                                                                    ",
"                                                                                                    "
};
